HIERARCHY
ROOT Hips
{
  OFFSET 5.84602e-005 68.8428 3.50346
  CHANNELS 6 Xposition Yposition Zposition Zrotation Xrotation Yrotation
  JOINT Spine
  {
    OFFSET 0 8.597 -4.6522
    CHANNELS 3 Zrotation Xrotation Yrotation
    JOINT Spine1
    {
      OFFSET 0 7.8454 0.4098
      CHANNELS 3 Zrotation Xrotation Yrotation
      JOINT Spine2
      {
        OFFSET 0 9.7078 -2.1609
        CHANNELS 3 Zrotation Xrotation Yrotation
        JOINT Neck
        {
          OFFSET 0 21.8761 -0.4549
          CHANNELS 3 Zrotation Xrotation Yrotation
          JOINT Head
          {
            OFFSET 0 12.3537 3.3602
            CHANNELS 3 Zrotation Xrotation Yrotation
            End Site
            {
              OFFSET 0.0001 18.9506 0.5657
            }
          }
        }
        JOINT LeftShoulder
        {
          OFFSET 2.2086 21.1115 7.2329
          CHANNELS 3 Zrotation Xrotation Yrotation
          JOINT LeftArm
          {
            OFFSET 13.1193 3.0282 -4.8998
            CHANNELS 3 Zrotation Xrotation Yrotation
            JOINT LeftForeArm
            {
              OFFSET 27.4081 -0.0973053 -0.2375
              CHANNELS 3 Zrotation Xrotation Yrotation
              JOINT LeftHand
              {
                OFFSET 22.8641 0.0662994 -0.1369
                CHANNELS 3 Zrotation Xrotation Yrotation
                JOINT LeftHandIndex1
                {
                  OFFSET 8.8614 0.775009 2.4612
                  CHANNELS 3 Zrotation Xrotation Yrotation
                  JOINT LeftHandIndex2
                  {
                    OFFSET 3.3146 -0.808304 0.5841
                    CHANNELS 3 Zrotation Xrotation Yrotation
                    JOINT LeftHandIndex3
                    {
                      OFFSET 2.2628 -0.552002 0.3989
                      CHANNELS 3 Zrotation Xrotation Yrotation
                      End Site
                      {
                        OFFSET 1.6102 -0.4807 0.2612
                      }
                    }
                  }
                }
                JOINT LeftHandMiddle1
                {
                  OFFSET 8.9937 0.895004 0.2143
                  CHANNELS 3 Zrotation Xrotation Yrotation
                  JOINT LeftHandMiddle2
                  {
                    OFFSET 4.0984 0.0113983 -0.0242
                    CHANNELS 3 Zrotation Xrotation Yrotation
                    JOINT LeftHandMiddle3
                    {
                      OFFSET 2.2716 0.00689697 -0.0138001
                      CHANNELS 3 Zrotation Xrotation Yrotation
                      End Site
                      {
                        OFFSET 2.0404 -0.1441 0.0027
                      }
                    }
                  }
                }
                JOINT LeftHandRing1
                {
                  OFFSET 8.5234 0.597198 -2.0164
                  CHANNELS 3 Zrotation Xrotation Yrotation
                  JOINT LeftHandRing2
                  {
                    OFFSET 3.7188 -0.188293 -0.2328
                    CHANNELS 3 Zrotation Xrotation Yrotation
                    JOINT LeftHandRing3
                    {
                      OFFSET 2.1191 -0.106598 -0.1332
                      CHANNELS 3 Zrotation Xrotation Yrotation
                      End Site
                      {
                        OFFSET 1.8737 -0.2304 -0.0886
                      }
                    }
                  }
                }
                JOINT LeftHandPinky1
                {
                  OFFSET 7.9094 -0.601089 -3.4825
                  CHANNELS 3 Zrotation Xrotation Yrotation
                  JOINT LeftHandPinky2
                  {
                    OFFSET 2.2874 -0.477005 -0.6314
                    CHANNELS 3 Zrotation Xrotation Yrotation
                    JOINT LeftHandPinky3
                    {
                      OFFSET 1.6774 -0.349396 -0.4633
                      CHANNELS 3 Zrotation Xrotation Yrotation
                      End Site
                      {
                        OFFSET 1.4888 -0.4091 -0.3416
                      }
                    }
                  }
                }
                JOINT LeftHandThumb1
                {
                  OFFSET 1.833 -1.3875 1.3896
                  CHANNELS 3 Zrotation Xrotation Yrotation
                  JOINT LeftHandThumb2
                  {
                    OFFSET 3.4129 -1.121 2.5732
                    CHANNELS 3 Zrotation Xrotation Yrotation
                    JOINT LeftHandThumb3
                    {
                      OFFSET 2.2474 -0.804199 1.6192
                      CHANNELS 3 Zrotation Xrotation Yrotation
                      End Site
                      {
                        OFFSET 1.6527 -0.5689 1.1317
                      }
                    }
                  }
                }
              }
            }
          }
        }
        JOINT RightShoulder
        {
          OFFSET -2.2086 21.1115 7.2329
          CHANNELS 3 Zrotation Xrotation Yrotation
          JOINT RightArm
          {
            OFFSET -13.1216 3.0287 -4.9007
            CHANNELS 3 Zrotation Xrotation Yrotation
            JOINT RightForeArm
            {
              OFFSET -27.4081 -0.0973053 -0.2375
              CHANNELS 3 Zrotation Xrotation Yrotation
              JOINT RightHand
              {
                OFFSET -22.8641 0.0664063 -0.1369
                CHANNELS 3 Zrotation Xrotation Yrotation
                JOINT RightHandIndex1
                {
                  OFFSET -8.8614 0.774994 2.4612
                  CHANNELS 3 Zrotation Xrotation Yrotation
                  JOINT RightHandIndex2
                  {
                    OFFSET -3.3146 -0.808304 0.5841
                    CHANNELS 3 Zrotation Xrotation Yrotation
                    JOINT RightHandIndex3
                    {
                      OFFSET -2.2628 -0.552002 0.3989
                      CHANNELS 3 Zrotation Xrotation Yrotation
                      End Site
                      {
                        OFFSET -1.6102 -0.4807 0.2612
                      }
                    }
                  }
                }
                JOINT RightHandMiddle1
                {
                  OFFSET -8.9937 0.894989 0.2143
                  CHANNELS 3 Zrotation Xrotation Yrotation
                  JOINT RightHandMiddle2
                  {
                    OFFSET -4.0984 0.0113983 -0.0242
                    CHANNELS 3 Zrotation Xrotation Yrotation
                    JOINT RightHandMiddle3
                    {
                      OFFSET -2.2716 0.00691223 -0.0138001
                      CHANNELS 3 Zrotation Xrotation Yrotation
                      End Site
                      {
                        OFFSET -2.0404 -0.1441 0.0027
                      }
                    }
                  }
                }
                JOINT RightHandRing1
                {
                  OFFSET -8.5234 0.597198 -2.0164
                  CHANNELS 3 Zrotation Xrotation Yrotation
                  JOINT RightHandRing2
                  {
                    OFFSET -3.7188 -0.188309 -0.2328
                    CHANNELS 3 Zrotation Xrotation Yrotation
                    JOINT RightHandRing3
                    {
                      OFFSET -2.1191 -0.106598 -0.1332
                      CHANNELS 3 Zrotation Xrotation Yrotation
                      End Site
                      {
                        OFFSET -1.8737 -0.2304 -0.0886
                      }
                    }
                  }
                }
                JOINT RightHandPinky1
                {
                  OFFSET -7.9094 -0.601105 -3.4825
                  CHANNELS 3 Zrotation Xrotation Yrotation
                  JOINT RightHandPinky2
                  {
                    OFFSET -2.2874 -0.477005 -0.6314
                    CHANNELS 3 Zrotation Xrotation Yrotation
                    JOINT RightHandPinky3
                    {
                      OFFSET -1.6774 -0.349396 -0.4633
                      CHANNELS 3 Zrotation Xrotation Yrotation
                      End Site
                      {
                        OFFSET -1.4888 -0.4091 -0.3416
                      }
                    }
                  }
                }
                JOINT RightHandThumb1
                {
                  OFFSET -1.833 -1.38751 1.3896
                  CHANNELS 3 Zrotation Xrotation Yrotation
                  JOINT RightHandThumb2
                  {
                    OFFSET -3.41299 -1.12099 2.5732
                    CHANNELS 3 Zrotation Xrotation Yrotation
                    JOINT RightHandThumb3
                    {
                      OFFSET -2.24741 -0.804108 1.6192
                      CHANNELS 3 Zrotation Xrotation Yrotation
                      End Site
                      {
                        OFFSET -1.6527 -0.5689 1.1317
                      }
                    }
                  }
                }
              }
            }
          }
        }
      }
    }
  }
  JOINT RightUpLeg
  {
    OFFSET -9.1966 3.8861 -0.7581
    CHANNELS 3 Zrotation Xrotation Yrotation
    JOINT RightLeg
    {
      OFFSET -0.7359 -41.0265 0
      CHANNELS 3 Zrotation Xrotation Yrotation
      JOINT RightFoot
      {
        OFFSET 0 -40.2855 0
        CHANNELS 3 Zrotation Xrotation Yrotation
        JOINT RightToeBase
        {
          OFFSET 0 -5.6122 11.7359
          CHANNELS 3 Zrotation Xrotation Yrotation
          End Site
          {
            OFFSET 0 0 7.8731
          }
        }
      }
    }
  }
  JOINT LeftUpLeg
  {
    OFFSET 9.1965 3.8864 -0.7581
    CHANNELS 3 Zrotation Xrotation Yrotation
    JOINT LeftLeg
    {
      OFFSET 0.7359 -41.0268 0
      CHANNELS 3 Zrotation Xrotation Yrotation
      JOINT LeftFoot
      {
        OFFSET 0 -40.2855 0
        CHANNELS 3 Zrotation Xrotation Yrotation
        JOINT LeftToeBase
        {
          OFFSET 0 -5.6122 11.7359
          CHANNELS 3 Zrotation Xrotation Yrotation
          End Site
          {
            OFFSET 0 0 7.8731
          }
        }
      }
    }
  }
}
MOTION
Frames:	4
Frame Time:	0.0333333
-6.93003 14.9232 40.0446 -180 84.5029 -180 -0.127065 -1.95726 -0.416484 -0.268605 -3.91354 -0.838045 -0.268606 -3.91356 -0.838045 -3.61487e-005 -36.2278 -2.90933e-005 4.21072e-007 -15.0017 1.17309e-007 -0.759433 -13.9667 -26.3611 6.93345 -1.13614 -20.1026 33.4393 -19.1668 -35.5726 14.9696 -10.8675 1.9628 -6.36111e-015 5.96354e-016 -3.97569e-016 -9.54166e-015 6.95746e-016 7.95139e-016 -6.36111e-015 2.18663e-015 7.95139e-016 -6.36111e-015 5.96354e-016 -3.97569e-016 -0.0146445 -8.8946e-005 1.25719e-006 3.18055e-015 -1.59028e-015 -3.97569e-016 -6.36111e-015 5.96354e-016 -3.97569e-016 -0.0187112 -0.00117516 6.82536e-005 -9.54166e-015 -1.88845e-015 3.97569e-016 -6.36111e-015 5.96354e-016 -3.97569e-016 -0.0122129 -0.00323265 0.000673803 -3.18055e-015 3.8763e-015 7.95139e-016 -6.36111e-015 5.96354e-016 -3.97569e-016 -9.54166e-015 6.95746e-016 7.95139e-016 -6.36111e-015 2.18663e-015 7.95139e-016 1.10218 -14.399 26.4033 -7.44811 -1.26527 20.8417 -29.0711 -15.9549 38.3214 -15.0314 -10.4561 -3.69894 6.36111e-015 0 -0 3.18055e-015 1.98785e-016 -7.95139e-016 6.36111e-015 -1.98785e-016 -7.95139e-016 6.36111e-015 0 -0 0.0149872 -9.28383e-005 -5.22233e-006 6.36111e-015 1.11319e-014 -3.97569e-015 6.36111e-015 0 -0 0.0189517 -0.00118772 -5.71144e-005 3.18055e-015 7.95139e-016 -7.95139e-016 6.36111e-015 0 -0 0.012367 -0.00327368 -0.000684915 6.68759e-007 -1.20268e-007 -2.63674e-007 6.36111e-015 0 -0 3.18055e-015 1.98785e-016 -7.95139e-016 6.36111e-015 -1.98785e-016 -7.95139e-016 -97.9412 -34.2918 -106.038 -57.1496 80.4627 65.2631 -41.769 28.0289 66.8312 4.97401e-007 3.20868e-006 -6.67596e-007 97.9625 -34.6 105.777 57.0094 80.4967 -65.1362 41.3613 28.2085 -66.5672 -1.61102e-006 3.15707e-006 2.0325e-007 
-6.93005 15.0845 40.0196 -180 84.0016 -180 -0.125687 -2.16173 -0.417576 -0.267435 -4.32249 -0.840799 -0.267436 -4.32251 -0.8408 9.39758e-006 -35.9522 1.34869e-005 3.92921e-008 -15.0017 4.4154e-008 -1.0311 -13.6505 -26.3156 6.93345 -1.13611 -20.1026 33.5543 -19.2441 -35.7322 14.6828 -10.7044 1.92272 -3.18055e-015 6.95746e-016 3.97569e-016 -3.18055e-015 2.08724e-015 1.59028e-015 -7.5864e-033 1.09332e-015 3.97569e-016 -3.18055e-015 6.95746e-016 3.97569e-016 -0.0146273 -9.0622e-005 1.46268e-005 3.18055e-015 2.78299e-015 -0 -3.18055e-015 6.95746e-016 3.97569e-016 -0.0188171 -0.00118083 6.80065e-005 -6.36111e-015 3.97569e-016 3.97569e-016 -3.18055e-015 6.95746e-016 3.97569e-016 -0.012371 -0.00327629 0.000685146 6.36111e-015 5.96354e-016 -3.97569e-016 -3.18055e-015 6.95746e-016 3.97569e-016 -3.18055e-015 2.08724e-015 1.59028e-015 -7.5864e-033 1.09332e-015 3.97569e-016 1.38572 -14.0615 26.3278 -7.45435 -1.2663 20.8641 -29.1726 -16.0315 38.4934 -14.7588 -10.2933 -3.64694 0 7.95139e-016 -0 3.18055e-015 3.97569e-016 -3.97569e-016 3.18055e-015 5.96354e-016 -3.97569e-016 0 7.95139e-016 -0 0.0150599 -9.28396e-005 -1.092e-005 9.54166e-015 1.39149e-014 -3.57812e-015 0 7.95139e-016 -0 0.0190456 -0.00119678 -6.85419e-005 9.54166e-015 1.39149e-015 -7.95139e-016 0 7.95139e-016 -0 0.0123299 -0.00326386 -0.000680523 3.18055e-015 1.15295e-014 -3.97569e-015 0 7.95139e-016 -0 3.18055e-015 3.97569e-016 -3.97569e-016 3.18055e-015 5.96354e-016 -3.97569e-016 -98.3905 -34.7398 -106.289 -57.2087 80.4689 65.3222 -41.1743 28.4261 66.3989 1.20362e-006 -5.31073e-007 -7.74554e-007 98.4125 -35.0329 106.042 57.0692 80.503 -65.1958 40.7852 28.5952 -66.1469 8.6851e-007 4.82683e-009 -1.26556e-007 
-6.93006 15.2459 39.9951 -180 83.5004 -180 -0.124303 -2.36603 -0.418628 -0.266262 -4.73109 -0.843478 -0.266263 -4.73109 -0.843478 -1.81893e-005 -35.6771 -4.38692e-006 6.65168e-008 -15.0017 6.51591e-008 -1.30269 -13.3348 -26.2686 6.93345 -1.13612 -20.1026 33.6691 -19.3217 -35.8917 14.3963 -10.5411 1.88355 -9.54166e-015 1.2921e-015 -0 -6.36111e-015 2.98177e-016 -1.19271e-015 -6.36111e-015 1.98785e-016 -0 -9.54166e-015 1.2921e-015 -0 -0.014649 -9.10359e-005 1.50328e-005 -3.18055e-015 1.12313e-014 2.38542e-015 -9.54166e-015 1.2921e-015 -0 -0.018838 -0.00118218 6.59152e-005 -9.54166e-015 1.98785e-016 -2.78299e-015 -9.54166e-015 1.2921e-015 -0 -0.0121977 -0.0032302 0.000673409 -0 -8.94531e-016 -0 -9.54166e-015 1.2921e-015 -0 -6.36111e-015 2.98177e-016 -1.19271e-015 -6.36111e-015 1.98785e-016 -0 1.66928 -13.7246 26.2505 -7.46059 -1.26733 20.8864 -29.2739 -16.1084 38.6653 -14.4865 -10.1301 -3.59574 -3.18055e-015 9.93923e-016 3.97569e-016 -3.18055e-015 7.95139e-016 -3.97569e-016 -8.27607e-033 5.96354e-016 7.95139e-016 -3.18055e-015 9.93923e-016 3.97569e-016 0.0149493 -9.19534e-005 -3.22839e-006 -6.36111e-015 -2.5842e-015 -1.19271e-015 -3.18055e-015 9.93923e-016 3.97569e-016 0.0190086 -0.00119431 -6.37051e-005 -3.18055e-015 -1.21259e-014 -7.95139e-016 -3.18055e-015 9.93923e-016 3.97569e-016 0.0121999 -0.00322888 -0.00067656 3.18055e-015 -1.78906e-015 3.97569e-016 -3.18055e-015 9.93923e-016 3.97569e-016 -3.18055e-015 7.95139e-016 -3.97569e-016 -8.27607e-033 5.96354e-016 7.95139e-016 -98.845 -35.1861 -106.545 -57.2685 80.4752 65.3821 -40.5739 28.8193 65.9602 -4.03691e-008 7.67034e-009 -9.84849e-008 98.8677 -35.4641 106.312 57.1288 80.5093 -65.2555 40.2036 28.9783 -65.7206 -1.616e-007 -3.07679e-008 -3.93886e-007 
-6.93008 15.4075 39.9713 -180 82.9993 -180 -0.122914 -2.57012 -0.419646 -0.26509 -5.13925 -0.846094 -0.26509 -5.13926 -0.846094 -7.37986e-007 -35.4019 -1.71108e-006 -1.68931e-007 -15.0017 5.83258e-008 -1.57416 -13.0193 -26.2202 6.93345 -1.13613 -20.1026 33.7837 -19.3996 -36.0512 14.1101 -10.3776 1.84522 3.44016e-008 -1.19532e-006 -1.62598e-007 3.18055e-015 -2.28602e-015 -7.95139e-016 3.44016e-008 -1.19532e-006 -1.62598e-007 3.44016e-008 -1.19532e-006 -1.62598e-007 -0.0145923 -9.05388e-005 8.47911e-006 3.44063e-008 -1.1953e-006 -1.6275e-007 3.44016e-008 -1.19532e-006 -1.62598e-007 -0.0187638 -0.00117775 6.64385e-005 3.44055e-008 -1.19529e-006 -1.62794e-007 3.44016e-008 -1.19532e-006 -1.62598e-007 -0.0123048 -0.00325628 0.000675379 3.4394e-008 -1.1953e-006 -1.62728e-007 3.44016e-008 -1.19532e-006 -1.62598e-007 3.18055e-015 -2.28602e-015 -7.95139e-016 3.44016e-008 -1.19532e-006 -1.62598e-007 1.95287 -13.3882 26.1717 -7.46682 -1.26838 20.9087 -29.375 -16.1856 38.8371 -14.2144 -9.9668 -3.54534 -3.18055e-015 3.97569e-016 -7.95139e-016 -6.75422e-007 1.32554e-007 2.43294e-007 6.75422e-007 -1.32554e-007 -2.43294e-007 -3.18055e-015 3.97569e-016 -7.95139e-016 0.0150123 -9.05385e-005 3.83538e-007 3.18055e-015 -1.98785e-016 7.95139e-016 -3.18055e-015 3.97569e-016 -7.95139e-016 0.0189421 -0.0011844 -4.57999e-005 0 1.39149e-015 -0 -3.18055e-015 3.97569e-016 -7.95139e-016 0.0123197 -0.00326195 -0.000678199 -0 -2.18663e-015 -0 -3.18055e-015 3.97569e-016 -7.95139e-016 -6.75422e-007 1.32554e-007 2.43294e-007 6.75422e-007 -1.32554e-007 -2.43294e-007 -99.3046 -35.6307 -106.807 -57.328 80.4814 65.4421 -39.9676 29.2087 65.5151 1.61349e-007 -3.06102e-008 3.94002e-007 99.3279 -35.8934 106.589 57.1885 80.5156 -65.3155 39.6164 29.3576 -65.2882 1.50422e-007 -2.02137e-006 2.7917e-008 
